# xmcd
#
# Track frame offsets:
#	182
#	27272
#	40975
#	66102
#	96707
#	110052
#	124002
#	152372
#	170387
#	191025
#	213602
#	233460
#	259650
#	275135
#
# Disc length: 3904
#
# Revision: 5
# Processed by: cddbd v1.5.1PL0 Copyright (c) Steve Scherf et al.
# Submitted via: CDex 1.50beta9
# Normalized: r2:DSETVAR1,TDELIM( - ),TSWAP
#
DISCID=ca0f3e0e
DTITLE=Various Artist - Incontournables Jazz Blues
DYEAR=1999
DGENRE=Jazz
TTITLE0=Miles Davis - My funny Valentine
TTITLE1=Ella Fitzgerald - Mac The Knife
TTITLE2=Count Basie - Lill'Darling
TTITLE3=Sonny Rollins - St Thomas
TTITLE4=John Lee Hooker - Boogie Chillun
TTITLE5=Chet Baker - The more I see You
TTITLE6=Thelenious Monk - Round Midnight
TTITLE7=Art Pepper - Besame Mucho
TTITLE8=Coleman Hawkins - Laura
TTITLE9=Milt Jackson - Isn't she lovely
TTITLE10=Duke Ellington - Kinda Dukish
TTITLE11=Wes Montgomery - Moanin
TTITLE12=Memphis Slimm - Slim's Thing
TTITLE13=Mongo Santamaria - Afro Blue
EXTD=YEAR: 1999
EXTT0=
EXTT1=
EXTT2=
EXTT3=
EXTT4=
EXTT5=
EXTT6=
EXTT7=
EXTT8=
EXTT9=
EXTT10=
EXTT11=
EXTT12=
EXTT13=
PLAYORDER=
